<!--?xml version="1.0" encoding="UTF-8" standalone="no"?-->
<svg viewport-fill="#ffffff" xmlns:dc="http://purl.org/dc/elements/1.1/" xmlns:cc="http://creativecommons.org/ns#" xmlns:rdf="http://www.w3.org/1999/02/22-rdf-syntax-ns#" xmlns:svg="http://www.w3.org/2000/svg" xmlns="http://www.w3.org/2000/svg" id="svg65" viewBox="0 0 1024 768" height="768px" width="1024px" version="1.1">
  
  <defs id="defs69"></defs>
  <style><![CDATA[   #title path, #tagline path, #letter path, #title polygon, #tagline polygon, #letter polygon{ fill: #f6612c !important; } #icon *{ fill: #f6612c !important; } ]]> </style><g id="logo-group"><rect x="0" y="0" width="1024" height="768" style="fill: #ffffff" />
    <g id="title" style="font-style:normal;font-weight:800;font-size:72px;line-height:1;font-family:'Montserrat ExtraBold Alt1';font-variant-ligatures:none;text-align:center;text-anchor:middle" aria-label="BESSPPL">
      <path id="path73" style="font-style: normal; font-weight: 800; font-size: 72px; line-height: 1; font-family: &quot;Montserrat ExtraBold Alt1&quot;; font-variant-ligatures: none; text-align: center; text-anchor: middle;" d="m 389.8565,98.472 c -1.656,-2.16 -3.96,-3.744 -6.768,-4.752 2.088,-1.08 3.816,-2.592 4.968,-4.464 1.152,-1.872 1.8,-4.032 1.8,-6.48 0,-4.032 -1.728,-7.2 -5.04,-9.576 -3.384,-2.376 -8.28,-3.6 -14.688,-3.6 h -25.776 v 10.296 h 23.904 c 4.752,0 7.2,1.656 7.2,4.824 0,3.312 -2.448,4.896 -7.2,4.896 h -23.904 v 9.864 h 26.064 c 4.968,0 7.488,1.728 7.488,5.112 0,3.456 -2.52,5.112 -7.488,5.112 h -26.064 V 120 h 27.216 c 6.696,0 11.808,-1.152 15.408,-3.6 3.528,-2.376 5.328,-5.76 5.328,-10.224 0,-3.024 -0.864,-5.544 -2.448,-7.704 z" transform="translate(0 267.16342857143127) translate(247.85428571429105 80.83657142856943) scale(1.4285714285714) translate(-344.3525 -69.6)"></path>
      <path id="path75" style="font-style: normal; font-weight: 800; font-size: 72px; line-height: 1; font-family: &quot;Montserrat ExtraBold Alt1&quot;; font-variant-ligatures: none; text-align: center; text-anchor: middle;" d="m 439.71875,69.6 h -39.96 v 11.016 h 39.96 z m 0,19.512 h -39.96 v 10.656 h 39.96 z m -39.96,19.872 V 120 h 39.96 v -11.016 z" transform="translate(0 267.16342857143127) translate(334.1489285714322 80.83657142856943) scale(1.4285714285714) translate(-399.75875 -69.6)"></path>
      <path id="path77" style="font-style: normal; font-weight: 800; font-size: 72px; line-height: 1; font-family: &quot;Montserrat ExtraBold Alt1&quot;; font-variant-ligatures: none; text-align: center; text-anchor: middle;" d="m 453.96575,119.496 c 3.816,1.008 7.776,1.512 11.88,1.512 4.752,0 8.856,-0.72 12.24,-2.16 3.312,-1.44 5.832,-3.456 7.56,-5.904 1.656,-2.448 2.52,-5.184 2.52,-8.208 0,-3.456 -0.936,-6.264 -2.808,-8.28 -1.872,-2.016 -4.032,-3.528 -6.552,-4.464 -2.52,-0.936 -5.688,-1.8 -9.504,-2.664 -3.456,-0.72 -5.904,-1.368 -7.416,-2.088 -1.584,-0.648 -2.304,-1.656 -2.304,-3.024 0,-1.296 0.648,-2.376 1.944,-3.24 1.296,-0.864 3.312,-1.296 6.192,-1.296 4.464,0 9.144,1.296 13.968,3.888 l 4.392,-10.584 c -2.448,-1.44 -5.328,-2.52 -8.496,-3.24 -3.24,-0.72 -6.48,-1.152 -9.792,-1.152 -4.896,0 -9,0.72 -12.312,2.16 -3.312,1.44 -5.832,3.456 -7.488,5.904 -1.728,2.448 -2.52,5.256 -2.52,8.28 0,3.528 0.864,6.336 2.736,8.352 1.8,2.088 3.96,3.6 6.552,4.536 2.52,0.936 5.688,1.8 9.504,2.592 3.456,0.792 5.904,1.512 7.488,2.232 1.584,0.72 2.376,1.728 2.376,3.168 0,2.736 -2.736,4.104 -8.208,4.104 -2.88,0 -5.832,-0.432 -8.784,-1.368 -3.024,-0.864 -5.616,-2.088 -7.848,-3.6 l -4.68,10.512 c 2.376,1.728 5.472,3.024 9.36,4.032 z" transform="translate(0 267.16342857143127) translate(405.35892857143074 79.39657142856946) scale(1.4285714285714) translate(-444.60575 -68.592)"></path>
      <path id="path79" style="font-style: normal; font-weight: 800; font-size: 72px; line-height: 1; font-family: &quot;Montserrat ExtraBold Alt1&quot;; font-variant-ligatures: none; text-align: center; text-anchor: middle;" d="m 500.51263,119.496 c 3.81599,1.008 7.776,1.512 11.87999,1.512 4.75201,0 8.856,-0.72 12.24,-2.16 3.312,-1.44 5.832,-3.456 7.56001,-5.904 1.65599,-2.448 2.51999,-5.184 2.51999,-8.208 0,-3.456 -0.936,-6.264 -2.808,-8.28 -1.87199,-2.016 -4.032,-3.528 -6.552,-4.464 -2.52,-0.936 -5.688,-1.8 -9.504,-2.664 -3.456,-0.72 -5.904,-1.368 -7.41599,-2.088 -1.584,-0.648 -2.30401,-1.656 -2.30401,-3.024 0,-1.296 0.64801,-2.376 1.94401,-3.24 1.29599,-0.864 3.312,-1.296 6.192,-1.296 4.46399,0 9.144,1.296 13.96799,3.888 l 4.39201,-10.584 c -2.448,-1.44 -5.32801,-2.52 -8.496,-3.24 -3.24,-0.72 -6.48,-1.152 -9.792,-1.152 -4.89601,0 -9,0.72 -12.312,2.16 -3.31201,1.44 -5.832,3.456 -7.488,5.904 -1.72801,2.448 -2.52001,5.256 -2.52001,8.28 0,3.528 0.864,6.336 2.73601,8.352 1.79999,2.088 3.95999,3.6 6.55199,4.536 2.52001,0.936 5.688,1.8 9.504,2.592 3.45601,0.792 5.904,1.512 7.488,2.232 1.584,0.72 2.37601,1.728 2.37601,3.168 0,2.736 -2.736,4.104 -8.20801,4.104 -2.87999,0 -5.83199,-0.432 -8.78399,-1.368 -3.024,-0.864 -5.61601,-2.088 -7.84801,-3.6 l -4.68,10.512 c 2.376,1.728 5.472,3.024 9.36001,4.032 z" transform="translate(0 267.16342857143127) translate(478.997314285715 79.39657142856946) scale(1.4285714285714) translate(-491.15262 -68.592)"></path>
      <path id="path81" style="font-style: normal; font-weight: 800; font-size: 72px; line-height: 1; font-family: &quot;Montserrat ExtraBold Alt1&quot;; font-variant-ligatures: none; text-align: center; text-anchor: middle;" d="m 583.9235,78.384 c -1.872,-2.808 -4.464,-4.968 -7.776,-6.48 -3.384,-1.512 -7.344,-2.304 -11.88,-2.304 h -23.04 v 11.232 h 22.176 c 2.88,0 5.112,0.648 6.624,1.944 1.44,1.296 2.232,3.168 2.232,5.472 0,2.376 -0.792,4.176 -2.232,5.472 -1.512,1.296 -3.744,1.872 -6.624,1.872 h -22.176 V 120 h 14.256 v -13.176 h 8.784 c 4.536,0 8.496,-0.72 11.88,-2.232 3.312,-1.512 5.904,-3.672 7.776,-6.48 1.8,-2.736 2.736,-6.048 2.736,-9.864 0,-3.744 -0.936,-7.056 -2.736,-9.864 z" transform="translate(0 267.16342857143127) translate(557.6757142857133 80.83657142856943) scale(1.4285714285714) translate(-541.2275 -69.6)"></path>
      <path id="path83" style="font-style: normal; font-weight: 800; font-size: 72px; line-height: 1; font-family: &quot;Montserrat ExtraBold Alt1&quot;; font-variant-ligatures: none; text-align: center; text-anchor: middle;" d="m 636.236,78.384 c -1.872,-2.808 -4.464,-4.968 -7.776,-6.48 -3.384,-1.512 -7.344,-2.304 -11.88,-2.304 h -23.04 v 11.232 h 22.176 c 2.88,0 5.112,0.648 6.624,1.944 1.44,1.296 2.232,3.168 2.232,5.472 0,2.376 -0.792,4.176 -2.232,5.472 -1.512,1.296 -3.744,1.872 -6.624,1.872 H 593.54 V 120 h 14.256 v -13.176 h 8.784 c 4.536,0 8.496,-0.72 11.88,-2.232 3.312,-1.512 5.904,-3.672 7.776,-6.48 1.8,-2.736 2.736,-6.048 2.736,-9.864 0,-3.744 -0.936,-7.056 -2.736,-9.864 z" transform="translate(0 267.16342857143127) translate(639.5507142857116 80.83657142856943) scale(1.4285714285714) translate(-593.54 -69.6)"></path>
      <path id="path85" style="font-style: normal; font-weight: 800; font-size: 72px; line-height: 1; font-family: &quot;Montserrat ExtraBold Alt1&quot;; font-variant-ligatures: none; text-align: center; text-anchor: middle;" d="M 645.8525,69.6 V 120 h 38.304 v -11.304 h -24.048 V 69.6 Z" transform="translate(0 267.16342857143127) translate(721.4257142857099 80.83657142856943) scale(1.4285714285714) translate(-645.8525 -69.6)"></path>
    </g>
    <g id="tagline" style="font-style:normal;font-weight:500;font-size:32px;line-height:1;font-family:Montserrat;font-variant-ligatures:none;text-align:center;text-anchor:middle"></g>
  </g>
</svg>
